<svg xmlns="http://www.w3.org/2000/svg" viewBox="0 0 64 64" width="64" height="64">
  <rect width="64" height="64" rx="14" fill="#FAF9F5"/>
  <!-- mane: 8 radiating locks, tips kept inside the maskable-icon 80% safe circle -->
  <g fill="#BE7326">
    <ellipse cx="47" cy="32" rx="9.5" ry="6.2" transform="rotate(0 32 32)"/>
    <ellipse cx="47" cy="32" rx="9.5" ry="6.2" transform="rotate(45 32 32)"/>
    <ellipse cx="47" cy="32" rx="9.5" ry="6.2" transform="rotate(90 32 32)"/>
    <ellipse cx="47" cy="32" rx="9.5" ry="6.2" transform="rotate(135 32 32)"/>
    <ellipse cx="47" cy="32" rx="9.5" ry="6.2" transform="rotate(180 32 32)"/>
    <ellipse cx="47" cy="32" rx="9.5" ry="6.2" transform="rotate(225 32 32)"/>
    <ellipse cx="47" cy="32" rx="9.5" ry="6.2" transform="rotate(270 32 32)"/>
    <ellipse cx="47" cy="32" rx="9.5" ry="6.2" transform="rotate(315 32 32)"/>
  </g>
  <!-- ears -->
  <circle cx="21" cy="18" r="5.5" fill="#BE7326"/>
  <circle cx="43" cy="18" r="5.5" fill="#BE7326"/>
  <circle cx="21" cy="18" r="2.6" fill="#EFAE5C"/>
  <circle cx="43" cy="18" r="2.6" fill="#EFAE5C"/>
  <!-- face -->
  <circle cx="32" cy="33" r="13.5" fill="#EFAE5C"/>
  <!-- eyes -->
  <circle cx="26.5" cy="30" r="2.2" fill="#3A2417"/>
  <circle cx="37.5" cy="30" r="2.2" fill="#3A2417"/>
  <!-- heart nose -->
  <g transform="translate(23.6,31.2) scale(0.7)">
    <path d="M12,21.35l-1.45-1.32C5.4,15.36,2,12.28,2,8.5 2,5.42,4.42,3,7.5,3c1.74,0,3.41,0.81,4.5,2.09C13.09,3.81,14.76,3,16.5,3 19.58,3,22,5.42,22,8.5c0,3.78-3.4,6.86-8.55,11.54L12,21.35z" fill="#B84870"/>
  </g>
</svg>
